Coordinates
version=1
nRows=9
nColumns=63
inDegrees=yes

Units are S.I. units (second, meters, Newtons, ...)
If the header above contains a line with 'inDegrees', this indicates whether rotational values are in degrees (yes) or radians (no).

endheader
time	pelvis_tilt	pelvis_list	pelvis_rotation	pelvis_tx	pelvis_ty	pelvis_tz	hip_flexion_r	hip_adduction_r	hip_rotation_r	knee_angle_r	knee_angle_r_beta	ankle_angle_r	subtalar_angle_r	mtp_angle_r	hip_flexion_l	hip_adduction_l	hip_rotation_l	knee_angle_l	knee_angle_l_beta	ankle_angle_l	subtalar_angle_l	mtp_angle_l	L5_S1_Flex_Ext	L5_S1_Lat_Bending	L5_S1_axial_rotation	L4_L5_Flex_Ext	L4_L5_Lat_Bending	L4_L5_axial_rotation	L3_L4_Flex_Ext	L3_L4_Lat_Bending	L3_L4_axial_rotation	L2_L3_Flex_Ext	L2_L3_Lat_Bending	L2_L3_axial_rotation	L1_L2_Flex_Ext	L1_L2_Lat_Bending	L1_L2_axial_rotation	L1_T12_Flex_Ext	L1_T12_Lat_Bending	L1_T12_axial_rotation	Abs_r3	Abs_r2	Abs_r1	Abs_t1	Abs_t2	neck_flexion	neck_bending	neck_rotation	arm_flex_r	arm_add_r	arm_rot_r	elbow_flex_r	pro_sup_r	wrist_flex_r	wrist_dev_r	arm_flex_l	arm_add_l	arm_rot_l	elbow_flex_l	pro_sup_l	wrist_flex_l	wrist_dev_l
      3.85714286	      0.62819158	     -6.25240266	    105.04300474	      0.10960582	      0.98579798	      0.41285362	     -2.91716965	      4.75073803	      0.14180969	      0.66719338	      0.01164472	     18.96185677	    -15.17368106	      0.00000000	     -0.26489491	     -1.86266768	      1.62257715	      5.49765824	      0.09595224	     26.98815371	     -0.12528135	      0.00000000	     -0.07235165	     -0.23376720	      1.53350213	     -0.13436425	     -0.31091038	      1.62934601	     -0.11886653	     -0.56838157	      1.62934601	     -0.08269070	     -0.56838157	      1.34181436	     -0.06718574	     -0.47669808	      1.24597048	     -0.04134173	     -0.36210539	      1.15012660	     -0.51680062	     -2.64442133	      8.52887878	      0.00000000	      0.00000000	     13.66637606	     -8.07001139	     13.90020996	      8.42977497	    -12.61815342	     55.58285188	     60.92861058	     16.13654382	    -16.82031310	     10.95917672	     18.18033701	     -4.44067689	     75.85254798	     43.87569655	     70.44055110	     10.71089570	      3.62222982
      3.87755102	      0.65740781	     -6.14032024	    105.47959278	      0.10875125	      0.98608466	      0.41214189	     -3.07051163	      4.82728213	     -0.26084364	      0.72090122	      0.01258210	     18.96983550	    -15.26397107	      0.00000000	     -0.28737235	     -1.93997158	      1.83147563	      5.69494694	      0.09939557	     27.12193608	      0.18268129	      0.00000000	     -0.07728380	     -0.21456611	      1.43288382	     -0.14352374	     -0.28537293	      1.52243906	     -0.12696955	     -0.52169604	      1.52243906	     -0.08832765	     -0.52169604	      1.25377335	     -0.07176573	     -0.43754322	      1.16421811	     -0.04415996	     -0.33236291	      1.07466287	     -0.55203042	     -2.42721477	      7.96926996	      0.00000000	      0.00000000	     12.25919231	     -7.91644566	     13.13310009	      8.71920927	    -12.66832434	     56.26070540	     60.76944709	     18.58251473	    -15.19568176	     11.82584019	     17.93093040	     -4.60373212	     76.41694915	     43.99111311	     69.58505733	      9.81814189	      2.27246859
      3.89795918	      0.69005947	     -5.96661906	    106.15770948	      0.10755005	      0.98647189	      0.41166342	     -3.26745741	      4.93753145	     -0.72980028	      0.77322826	      0.01349538	     19.05269513	    -15.50087050	      0.00000000	     -0.42357615	     -2.01669309	      2.52903862	      5.69075705	      0.09932245	     27.06007059	      0.12965198	      0.00000000	     -0.10167952	     -0.18719614	      1.24576233	     -0.18882903	     -0.24897087	      1.32362247	     -0.16704928	     -0.45514870	      1.32362247	     -0.11620952	     -0.45514870	      1.09004204	     -0.09441960	     -0.38173037	      1.01218189	     -0.05809968	     -0.28996682	      0.93432174	     -0.72628662	     -2.11760020	      6.92855633	      0.00000000	      0.00000000	     10.63351743	     -7.47661987	     12.58130867	      9.79246138	    -12.73248260	     58.88465164	     60.39101808	     21.68268736	    -13.58241125	     12.76677928	     17.51793898	     -4.82533433	     76.48112924	     44.13229348	     69.76481916	      9.25245865	      1.21196839
      3.91836735	      0.86474387	     -5.85066316	    106.68301430	      0.10635201	      0.98668461	      0.41068712	     -3.37502848	      5.16999203	     -1.09351815	      0.82835961	      0.01445760	     19.28293667	    -15.53393110	      0.00000000	     -0.62336418	     -2.23197836	      3.04043896	      5.44794726	      0.09508462	     27.01995591	      0.28956792	      0.00000000	     -0.09475199	     -0.15151162	      1.14367130	     -0.17596392	     -0.20151046	      1.21515076	     -0.15566804	     -0.36838536	      1.21515076	     -0.10829205	     -0.36838536	      1.00071239	     -0.08798670	     -0.30896250	      0.92923294	     -0.05414129	     -0.23469151	      0.85775348	     -0.67680397	     -1.71392980	      6.36075670	      0.00000000	      0.00000000	      8.52016757	     -6.31352753	     11.34556876	     11.08163132	    -12.81004938	     62.69541856	     60.17315417	     25.16922713	    -12.52461821	     14.25717237	     17.29235721	     -4.79389950	     77.10786650	     44.01324793	     70.25466821	      9.21325569	      0.98624473
      3.93877551	      0.93412188	     -5.60759958	    107.82378728	      0.10422812	      0.98699715	      0.41003171	     -3.61904235	      5.36492932	     -2.69063208	      0.93329852	      0.01628913	     20.01492864	    -14.68429969	      0.00000000	     -0.85152729	     -2.32953913	      4.96822638	      5.29840271	      0.09247457	     26.73732381	     -0.84719138	      0.00000000	     -0.12713605	     -0.10061866	      0.86338760	     -0.23610436	     -0.13382282	      0.91734933	     -0.20887182	     -0.24464421	      0.91734933	     -0.14530379	     -0.24464421	      0.75546415	     -0.11805854	     -0.20518157	      0.70150243	     -0.07264554	     -0.15585831	      0.64754070	     -0.90812011	     -1.13821842	      4.80190282	      0.00000000	      0.00000000	      6.86423884	     -5.54823809	     11.77790246	     11.88344790	    -11.63458205	     62.19743047	     56.51212606	     50.18533647	      6.14926302	     19.69016257	     16.66155936	     -5.00635027	     75.97819915	     44.26813158	     72.51215814	      9.80968891	      0.63572688
      3.95918367	      1.05308197	     -5.33975458	    108.77422709	      0.10215766	      0.98723074	      0.40928456	     -3.86965892	      5.61024721	     -3.89626263	      1.03593535	      0.01808048	     20.63834606	    -14.11448742	      0.00000000	     -1.20965734	     -2.51909581	      6.44006140	      4.95440397	      0.08647066	     26.58687183	     -1.38338693	      0.00000000	     -0.14152255	     -0.04471341	      0.64831725	     -0.26282153	     -0.05946884	      0.68883708	     -0.23250740	     -0.10871619	      0.68883708	     -0.16174612	     -0.10871619	      0.56727760	     -0.13141784	     -0.09117959	      0.52675777	     -0.08086599	     -0.06926108	      0.48623794	     -1.01088143	     -0.50580707	      3.60574606	      0.00000000	      0.00000000	      5.14908721	     -4.61464951	     11.95922496	     13.37107279	    -10.63890730	     64.51307733	     55.73531495	     75.74607076	     15.67917387	     18.52779061	     16.40590510	     -5.05080557	     75.46986943	     44.41015907	     73.92057655	     10.65360795	      0.90292235
      3.97959184	      1.16973459	     -5.02321628	    109.70059659	      0.10008987	      0.98760575	      0.40874078	     -4.15061380	      5.87601823	     -4.91477177	      1.14641307	      0.02000868	     21.11197663	    -13.85366476	      0.00000000	     -1.60587656	     -2.74961780	      7.38553368	      4.59949370	      0.08027631	     26.46997072	     -1.29735809	      0.00000000	     -0.14876572	      0.01169023	      0.41388535	     -0.27627283	      0.01554801	      0.43975319	     -0.24440721	      0.02842363	      0.43975319	     -0.17002435	      0.02842363	      0.36214968	     -0.13814385	      0.02383872	      0.33628185	     -0.08500473	      0.01810817	      0.31041401	     -1.06261869	      0.13224225	      2.30190617	      0.00000000	      0.00000000	      3.59359694	     -3.72948254	     12.31486343	     15.54301903	    -10.02118804	     71.02256133	     56.51898278	     87.71224664	     15.68282161	     18.21210994	     16.33939627	     -5.06284955	     75.13576503	     44.46032431	     74.28501732	     11.56833023	      1.28290942
      4.00000000	      1.15113251	     -4.65784432	    110.54377274	      0.09827679	      0.98811264	      0.40817602	     -4.51473473	      6.02770591	     -6.52461061	      1.31716986	      0.02298895	     21.68437145	    -12.72059913	      0.00000000	     -2.10644205	     -2.86980922	      8.82368371	      4.24040452	      0.07400902	     26.21537595	     -1.91319585	      0.00000000	     -0.16120323	      0.05264550	      0.15382913	     -0.29937051	      0.07001852	      0.16344345	     -0.26484078	      0.12800228	      0.16344345	     -0.18423917	      0.12800228	      0.13460049	     -0.14969332	      0.10735471	      0.12498617	     -0.09211152	      0.08154788	      0.11537185	     -1.15145853	      0.59553646	      0.85555148	      0.00000000	      0.00000000	      2.39572122	     -3.23689127	     12.80238181	     17.97197311	     -9.05300148	     78.86911898	     56.73197961	     88.91791914	     12.82447439	     19.19870464	     15.92659698	     -5.16909477	     73.29196873	     44.72075324	     75.86379732	     13.21102471	      2.36483036
      4.02040816	      1.14798012	     -4.36766682	    111.30657960	      0.09651013	      0.98854390	      0.40766154	     -4.80929192	      6.16583164	     -7.54245933	      1.49609007	      0.02611170	     21.85996038	    -12.48356925	      0.00000000	     -2.47074156	     -2.98790408	      9.72739605	      4.00979395	      0.06998411	     26.07775384	     -2.04916536	      0.00000000	     -0.15486292	      0.08963052	     -0.03867159	     -0.28759593	      0.11920859	     -0.04108856	     -0.25442429	      0.21792764	     -0.04108856	     -0.17699283	      0.21792764	     -0.03383764	     -0.14380571	      0.18277455	     -0.03142067	     -0.08848867	      0.13883767	     -0.02900369	     -1.10617035	      1.01391834	     -0.21507977	      0.00000000	      0.00000000	      1.57409534	     -3.17140821	     13.00852711	     19.08401332	     -8.17741779	     83.42329509	     56.77265297	     89.22635444	     11.03261667	     20.20512536	     15.87575350	     -5.10804223	     72.59006603	     44.70056387	     75.84292423	     14.44674644	      2.93067833
